<svg viewBox="0 0 24 24" version="1.1" xmlns="http://www.w3.org/2000/svg" xmlns:xlink="http://www.w3.org/1999/xlink"><path d="M8.41421356,11 L18,11 C18.5522847,11 19,11.4477153 19,12 C19,12.5522847 18.5522847,13 18,13 L8.41421356,13 L11.7071068,16.2928932 C12.0976311,16.6834175 12.0976311,17.3165825 11.7071068,17.7071068 C11.3165825,18.0976311 10.6834175,18.0976311 10.2928932,17.7071068 L5.29289322,12.7071068 C4.90236893,12.3165825 4.90236893,11.6834175 5.29289322,11.2928932 L10.2928932,6.29289322 C10.6834175,5.90236893 11.3165825,5.90236893 11.7071068,6.29289322 C12.0976311,6.68341751 12.0976311,7.31658249 11.7071068,7.70710678 L8.41421356,11 Z" fill-rule="nonzero" transform="translate(12.000000, 12.000000) scale(1, -1) rotate(-270.000000) translate(-12.000000, -12.000000) "></path></svg>