<svg viewBox="0 0 24 24" version="1.1" xmlns="http://www.w3.org/2000/svg" xmlns:xlink="http://www.w3.org/1999/xlink"><path d="M12,21 C10.896,21 10,20.104 10,19 L14,19 C14,20.104 13.104,21 12,21 Z M17.9999,12 C17.9999,13.539 18.5849,14.938 19.5369,16 C19.5369,16 19.9999,16.448 19.9999,17 C19.9999,17.552 19.5519,18 18.9999,18 L4.9999,18 C4.4479,18 3.9999,17.552 3.9999,17 C3.9999,16.448 4.4639,16 4.4639,16 C5.4159,14.938 5.9999,13.539 5.9999,12 L5.9999,11 L5.9999,10 C5.9999,7.021 8.1729,4.557 11.0179,4.087 C11.0149,4.057 10.9999,4.031 10.9999,4 C10.9999,3.448 11.4479,3 11.9999,3 C12.5519,3 12.9999,3.448 12.9999,4 C12.9999,4.031 12.9849,4.057 12.9829,4.087 C15.8279,4.557 17.9999,7.021 17.9999,10 L17.9999,11 L17.9999,12 Z"></path></svg>