<svg viewBox="0 0 24 24" version="1.1" xmlns="http://www.w3.org/2000/svg" xmlns:xlink="http://www.w3.org/1999/xlink"><path d="M15.9847543,4 L15.9847543,10.0253475 L14.0423771,8.02617171 L12,10.0253475 L12,4 L7.0004,4 C6.4484,4 6.0004,4.449 6.0004,5 L6.0004,16 L18.0004,16 L18.0004,4 L15.9847543,4 Z M18.0004,18 L6.0004,18 L6.0004,19 C6.0004,19.551 6.4484,20 7.0004,20 L18.0004,20 L18.0004,18 Z M20.0004,2 L20.0004,22 L7.0004,22 C5.3434,22 4.0004,20.657 4.0004,19 L4.0004,5 C4.0004,3.343 5.3434,2 7.0004,2 L20.0004,2 Z"></path></svg>