<svg viewBox="0 0 24 24" version="1.1" xmlns="http://www.w3.org/2000/svg" xmlns:xlink="http://www.w3.org/1999/xlink"><path d="M5,10 L4,10 L4,19 L20,19 L20,10 L18.9848307,10 L18.9848307,15.9810639 C18.9848307,16.4139956 18.7062434,16.7977607 18.294608,16.9318731 L12.3097773,18.8817538 C12.203446,18.916397 12.0966481,18.9323013 11.9924154,18.931668 C11.8881827,18.9323013 11.7813847,18.916397 11.6750535,18.8817538 L5.69022274,16.9318731 C5.27858737,16.7977607 5,16.4139956 5,15.9810639 L5,10 Z M5,8 L5,4 C5,3.32029702 5.66350944,2.83863432 6.30977726,3.04919084 L11.9924154,4.90061607 L17.6750535,3.04919084 C18.3213213,2.83863432 18.9848307,3.32029702 18.9848307,4 L18.9848307,8 L21,8 C21.5522847,8 22,8.44771525 22,9 L22,20 C22,20.5522847 21.5522847,21 21,21 L3,21 C2.44771525,21 2,20.5522847 2,20 L2,9 C2,8.44771525 2.44771525,8 3,8 L5,8 Z M13,16.5534051 L16.9848307,15.255132 L16.9848307,5.37753959 L13,6.67581268 L13,16.5534051 Z M10.9848307,16.5534051 L10.9848307,6.67581268 L7,5.37753959 L7,15.255132 L10.9848307,16.5534051 Z"></path></svg>