<svg viewBox="0 0 24 24" version="1.1" xmlns="http://www.w3.org/2000/svg" xmlns:xlink="http://www.w3.org/1999/xlink"><path d="M12,20 C16.418278,20 20,16.418278 20,12 C20,7.581722 16.418278,4 12,4 C7.581722,4 4,7.581722 4,12 C4,16.418278 7.581722,20 12,20 Z M12,22 C6.4771525,22 2,17.5228475 2,12 C2,6.4771525 6.4771525,2 12,2 C17.5228475,2 22,6.4771525 22,12 C22,17.5228475 17.5228475,22 12,22 Z M14.7148386,13.3937837 C15.0684356,13.8180331 15.0111606,14.4486023 14.5869112,14.8021994 C14.1626618,15.1557964 13.5320927,15.0985214 13.1784956,14.674272 L11,12.0604907 L11,7 C11,6.44771525 11.4477153,6 12,6 C12.5522847,6 13,6.44771525 13,7 L13,11.3363029 L14.7148386,13.3937837 Z" fill-rule="nonzero"></path></svg>