<svg viewBox="0 0 24 24" version="1.1" xmlns="http://www.w3.org/2000/svg" xmlns:xlink="http://www.w3.org/1999/xlink"><path d="M14,17 L14,19 L16,19 C16.5522847,19 17,19.4477153 17,20 C17,20.5522847 16.5522847,21 16,21 L8,21 C7.44771525,21 7,20.5522847 7,20 C7,19.4477153 7.44771525,19 8,19 L10,19 L10,17 L4,17 C2.8954305,17 2,16.1045695 2,15 L2,5 C2,3.8954305 2.8954305,3 4,3 L20,3 C21.1045695,3 22,3.8954305 22,5 L22,15 C22,16.1045695 21.1045695,17 20,17 L14,17 Z M4,5 L4,15 L20,15 L20,5 L4,5 Z" fill-rule="nonzero"></path></svg>