<svg viewBox="0 0 24 24" version="1.1" xmlns="http://www.w3.org/2000/svg" xmlns:xlink="http://www.w3.org/1999/xlink"><path d="M12,14 C10.896,14 10,13.104 10,12 C10,10.896 10.896,10 12,10 C13.104,10 14,10.896 14,12 C14,13.104 13.104,14 12,14" ></path><path d="M12,8 C10.896,8 10,7.104 10,6 C10,4.896 10.896,4 12,4 C13.104,4 14,4.896 14,6 C14,7.104 13.104,8 12,8"></path><path d="M12,20 C10.896,20 10,19.104 10,18 C10,16.896 10.896,16 12,16 C13.104,16 14,16.896 14,18 C14,19.104 13.104,20 12,20"></path></svg>