<svg viewBox="0 0 24 24" version="1.1" xmlns="http://www.w3.org/2000/svg" xmlns:xlink="http://www.w3.org/1999/xlink"><path d="M8.01363357,12.9748252 L11.8495976,19.5136318 C11.989326,19.7518137 11.9095137,20.0581705 11.6713319,20.1978988 C11.5946131,20.2429056 11.5072772,20.2666325 11.4183312,20.2666325 L3.74640319,20.2666325 C3.47026082,20.2666325 3.24640319,20.0427749 3.24640319,19.7666325 C3.24640319,19.6776865 3.27013007,19.5903506 3.31513683,19.5136318 L7.15110084,12.9748252 C7.29082923,12.7366434 7.59718601,12.6568311 7.83536784,12.7965595 C7.90904084,12.8397794 7.9704136,12.9011522 8.01363357,12.9748252 Z" transform="translate(7.582422, 16.582422) rotate(-135.000000) translate(-7.582422, -16.582422) "></path><path d="M17.0136336,3.97482521 L20.8495976,10.5136318 C20.989326,10.7518137 20.9095137,11.0581705 20.6713319,11.1978988 C20.5946131,11.2429056 20.5072772,11.2666325 20.4183312,11.2666325 L12.7464032,11.2666325 C12.4702608,11.2666325 12.2464032,11.0427749 12.2464032,10.7666325 C12.2464032,10.6776865 12.2701301,10.5903506 12.3151368,10.5136318 L16.1511008,3.97482521 C16.2908292,3.73664337 16.597186,3.65683109 16.8353678,3.79655948 C16.9090408,3.83977945 16.9704136,3.90115221 17.0136336,3.97482521 Z" transform="translate(16.582422, 7.582422) rotate(-315.000000) translate(-16.582422, -7.582422) "></path></svg>