<svg viewBox="0 0 24 24" version="1.1" xmlns="http://www.w3.org/2000/svg" xmlns:xlink="http://www.w3.org/1999/xlink"><path d="M19,20 L5,20 C4.447,20 4,19.552 4,19 L4,5 C4,4.448 4.447,4 5,4 L9,4 C9.553,4 10,4.448 10,5 C10,5.552 9.553,6 9,6 L6,6 L6,18 L18,18 L18,15 C18,14.448 18.447,14 19,14 C19.553,14 20,14.448 20,15 L20,19 C20,19.552 19.553,20 19,20 Z M19.9229,4.6182 C19.9739,4.7402 19.9999,4.8702 19.9999,5.0002 L19.9999,11.0002 C19.9999,11.5522 19.5529,12.0002 18.9999,12.0002 C18.4469,12.0002 17.9999,11.5522 17.9999,11.0002 L17.9999,7.4142 L13.7069,11.7072 C13.5119,11.9022 13.2559,12.0002 12.9999,12.0002 C12.7439,12.0002 12.4879,11.9022 12.2929,11.7072 C11.9019,11.3162 11.9019,10.6832 12.2929,10.2932 L16.5859,6.0002 L12.9999,6.0002 C12.4469,6.0002 11.9999,5.5522 11.9999,5.0002 C11.9999,4.4482 12.4469,4.0002 12.9999,4.0002 L18.9999,4.0002 C19.1299,4.0002 19.2599,4.0262 19.3819,4.0772 C19.6269,4.1792 19.8209,4.3732 19.9229,4.6182 Z"></path></svg>