<svg viewBox="0 0 24 24" version="1.1" xmlns="http://www.w3.org/2000/svg" xmlns:xlink="http://www.w3.org/1999/xlink"><path d="M12.6325319,15.9515319 C9.92953191,16.3655319 7.63453191,14.0705319 8.04853191,11.3675319 C8.30653191,9.68253191 9.68353191,8.30553191 11.3675319,8.04853191 C14.0705319,7.63453191 16.3655319,9.92953191 15.9515319,12.6325319 C15.6935319,14.3165319 14.3175319,15.6935319 12.6325319,15.9515319 M2.10611477,11.5204692 C1.96502841,11.8187769 1.96502841,12.1806231 2.10611477,12.4800077 C3.93116768,16.3450846 7.67197187,18.9997 12.0003,18.9997 C16.3276204,18.9997 20.0694323,16.3450846 21.8944852,12.4800077 C22.0355716,12.1806231 22.0355716,11.8187769 21.8944852,11.5204692 C20.0694323,7.65539231 16.3276204,4.9997 12.0003,4.9997 C7.67197187,4.9997 3.93116768,7.65539231 2.10611477,11.5204692 Z"></path><path d="M14,12 C14,13.104 13.104,14 12,14 C10.896,14 10,13.104 10,12 C10,10.896 10.896,10 12,10 C13.104,10 14,10.896 14,12"></path></svg>