<svg viewBox="0 0 24 24" version="1.1" xmlns="http://www.w3.org/2000/svg" xmlns:xlink="http://www.w3.org/1999/xlink"><path d="M8.55553614,14.0301639 L10.0677829,12.5179171 C10.0231979,12.3529067 9.9994,12.1792578 9.9994,11.9998 C9.9994,10.8958 10.8954,9.9998 11.9994,9.9998 C12.1788837,9.9998 12.3525568,10.0235673 12.5175885,10.0681115 L14.0299018,8.55579822 C13.268775,8.10463223 12.3453769,7.89881372 11.3674,8.0484 C9.6834,8.3054 8.3064,9.6824 8.0484,11.3674 C7.89879655,12.3454892 8.10435836,13.268987 8.55553614,14.0301639 Z M5.69389107,16.8918089 C4.18053529,15.7680605 2.9418097,14.2513621 2.1054,12.4804 C1.9644,12.1804 1.9644,11.8184 2.1054,11.5204 C3.9304,7.6554 7.6714,4.9994 12.0004,4.9994 C13.6201436,4.9994 15.1563239,5.37424091 16.5412985,6.04440152 L19.2927,3.293 C19.6837,2.902 20.3157,2.902 20.7067,3.293 C21.0977,3.684 21.0977,4.316 20.7067,4.707 L18.301195,7.11250498 C18.3015967,7.11280329 18.3019984,7.11310163 18.3024,7.1134 L15.4434,9.9724 C15.4431402,9.97195986 15.4428803,9.97151977 15.4426203,9.97107974 L13.9250853,11.4886147 C13.9251903,11.4890098 13.9252952,11.4894049 13.9254,11.4898 L11.4894,13.9258 C11.489005,13.9256951 11.48861,13.9255901 11.488215,13.925485 L9.97107937,15.4426206 C9.97151953,15.4428805 9.97195974,15.4431403 9.9724,15.4434 L7.4564,17.9594 C7.4559277,17.9591723 7.45545543,17.9589446 7.45498317,17.9587168 L4.7067,20.707 C4.5117,20.902 4.2557,21 3.9997,21 C3.7437,21 3.4877,20.902 3.2927,20.707 C2.9017,20.316 2.9017,19.684 3.2927,19.293 L5.69389107,16.8918089 Z M19.7985,8.4453 C20.6415,9.3403 21.3535,10.3753 21.8945,11.5203 C22.0345,11.8193 22.0345,12.1803 21.8945,12.4803 C20.0695,16.3443 16.3275,19.0003 12.0005,19.0003 C11.1535,19.0003 10.3315,18.8953 9.5405,18.7033 L12.2575,15.9863 C12.3815,15.9783 12.5065,15.9703 12.6315,15.9513 C14.3175,15.6933 15.6935,14.3163 15.9505,12.6323 C15.9705,12.5063 15.9785,12.3823 15.9855,12.2583 L19.7985,8.4453 Z"></path></svg>