<svg viewBox="0 0 24 24" version="1.1" xmlns="http://www.w3.org/2000/svg" xmlns:xlink="http://www.w3.org/1999/xlink"><path d="M17,8 L17,17 C17,17.5522847 16.5522847,18 16,18 L9,18 L9,20 L19,20 L19,8 L17,8 Z M17,6 L20,6 C20.5522847,6 21,6.44771525 21,7 L21,21 C21,21.5522847 20.5522847,22 20,22 L8,22 C7.44771525,22 7,21.5522847 7,21 L7,18 L4,18 C3.44771525,18 3,17.5522847 3,17 L3,3 C3,2.44771525 3.44771525,2 4,2 L16,2 C16.5522847,2 17,2.44771525 17,3 L17,6 Z M5,4 L5,16 L15,16 L15,4 L5,4 Z M8,6 L12,6 C12.5522847,6 13,6.44771525 13,7 C13,7.55228475 12.5522847,8 12,8 L8,8 C7.44771525,8 7,7.55228475 7,7 C7,6.44771525 7.44771525,6 8,6 Z M8,9 L12,9 C12.5522847,9 13,9.44771525 13,10 C13,10.5522847 12.5522847,11 12,11 L8,11 C7.44771525,11 7,10.5522847 7,10 C7,9.44771525 7.44771525,9 8,9 Z M8,12 L9,12 C9.55228475,12 10,12.4477153 10,13 C10,13.5522847 9.55228475,14 9,14 L8,14 C7.44771525,14 7,13.5522847 7,13 C7,12.4477153 7.44771525,12 8,12 Z"></path></svg>