<svg viewBox="0 0 24 24" version="1.1" xmlns="http://www.w3.org/2000/svg" xmlns:xlink="http://www.w3.org/1999/xlink"><path d="M16,14.2950123 C16.2028823,14.3587439 16.4187459,14.3931 16.6426,14.3931 C16.7536,14.3931 16.8676,14.3851 16.9816,14.3671 C17.3608649,14.3086545 17.7111353,14.1444851 18,13.9067798 C18.3981378,13.5791543 18.679625,13.1118351 18.7596,12.5891 C18.8824382,11.7858348 18.5593004,11.0500098 18,10.5916566 C17.6304581,10.2888127 17.1578185,10.1071 16.6426,10.1071 C16.5316,10.1071 16.4176,10.1161 16.3036,10.1331 C16.2000172,10.1489475 16.0985971,10.1727075 16,10.2037197 C15.2400124,10.4427629 14.6477524,11.1126834 14.5256,11.9111 C14.3568908,13.0143262 15.0301106,13.9903397 16,14.2950123 Z M16,17.9733543 C16.2123749,17.9911019 16.4267026,18.0001 16.6426,18.0001 C17.1034613,18.0001 17.5571698,17.9590988 18,17.8795217 L18,21 C18,21.552 17.553,22 17,22 L3,22 C2.447,22 2,21.552 2,21 L2,3 C2,2.448 2.447,2 3,2 L17,2 C17.553,2 18,2.448 18,3 L18,6.62073413 C17.5571722,6.5411245 17.1034625,6.5001 16.6426,6.5001 C16.4267066,6.5001 16.2123788,6.50910878 16,6.52687567 L16,4 L4,4 L4,20 L16,20 L16,17.9733543 Z M10.9740503,9 L7,9 C6.447,9 6,8.552 6,8 C6,7.448 6.447,7 7,7 L13,7 C13.1988074,7 13.3839148,7.0579019 13.5394777,7.15772187 C12.5785511,7.5851321 11.7069509,8.20998507 10.9740503,9 Z M9.3964771,13 L7,13 C6.447,13 6,12.552 6,12 C6,11.448 6.447,11 7,11 L9.60083308,11 C9.57806027,11.0460767 9.5556477,11.0924443 9.5336,11.1391 C9.26049502,11.7169502 9.21478739,12.3897803 9.3964771,13 Z M10,17 L7,17 C6.447,17 6,16.552 6,16 C6,15.448 6.447,15 7,15 L10,15 C10.553,15 11,15.448 11,16 C11,16.552 10.553,17 10,17 Z M16.6426,8.5001 C18.9606,8.5001 20.9656,9.9231 21.9436,11.9931 C22.0186,12.1531 22.0186,12.3471 21.9436,12.5071 C20.9656,14.5781 18.9606,16.0001 16.6426,16.0001 C14.3246,16.0001 12.3206,14.5781 11.3426,12.5071 C11.2666,12.3471 11.2666,12.1531 11.3426,11.9931 C12.3206,9.9231 14.3246,8.5001 16.6426,8.5001 Z M17.7139,12.25 C17.7139,12.841 17.2349,13.321 16.6429,13.321 C16.0519,13.321 15.5709,12.841 15.5709,12.25 C15.5709,11.659 16.0519,11.179 16.6429,11.179 C17.2349,11.179 17.7139,11.659 17.7139,12.25 Z"></path></svg>