<svg viewBox="0 0 24 24" version="1.1" xmlns="http://www.w3.org/2000/svg" xmlns:xlink="http://www.w3.org/1999/xlink"><path d="M6,20 L18,20 L18,4 L6,4 L6,20 Z M19,22 L5,22 C4.447,22 4,21.552 4,21 L4,3 C4,2.448 4.447,2 5,2 L19,2 C19.553,2 20,2.448 20,3 L20,21 C20,21.552 19.553,22 19,22 Z M15,13 L9,13 C8.447,13 8,12.552 8,12 C8,11.448 8.447,11 9,11 L15,11 C15.553,11 16,11.448 16,12 C16,12.552 15.553,13 15,13 Z M15,9 L9,9 C8.447,9 8,8.552 8,8 C8,7.448 8.447,7 9,7 L15,7 C15.553,7 16,7.448 16,8 C16,8.552 15.553,9 15,9 Z M12,17 L9,17 C8.447,17 8,16.552 8,16 C8,15.448 8.447,15 9,15 L12,15 C12.553,15 13,15.448 13,16 C13,16.552 12.553,17 12,17 Z"></path></svg>