<svg viewBox="0 0 24 24" version="1.1" xmlns="http://www.w3.org/2000/svg" xmlns:xlink="http://www.w3.org/1999/xlink"><path d="M16.8907479,8.52346564 L8.52346564,16.8907479 C9.50428451,17.589209 10.7041696,18 12,18 C15.3137085,18 18,15.3137085 18,12 C18,10.7041696 17.589209,9.50428451 16.8907479,8.52346564 Z M15.4765344,7.10925208 C14.4957155,6.41079097 13.2958304,6 12,6 C8.6862915,6 6,8.6862915 6,12 C6,13.2958304 6.41079097,14.4957155 7.10925208,15.4765344 L15.4765344,7.10925208 Z M7.09435615,18.3198574 L4.70710678,20.7071068 C4.31658249,21.0976311 3.68341751,21.0976311 3.29289322,20.7071068 C2.90236893,20.3165825 2.90236893,19.6834175 3.29289322,19.2928932 L5.68014258,16.9056439 C4.62708161,15.5509601 4,13.8487115 4,12 C4,7.581722 7.581722,4 12,4 C13.8487115,4 15.5509601,4.62708161 16.9056439,5.68014258 L19.2928932,3.29289322 C19.6834175,2.90236893 20.3165825,2.90236893 20.7071068,3.29289322 C21.0976311,3.68341751 21.0976311,4.31658249 20.7071068,4.70710678 L18.3198574,7.09435615 C19.3729184,8.44903985 20,10.1512885 20,12 C20,16.418278 16.418278,20 12,20 C10.1512885,20 8.44903985,19.3729184 7.09435615,18.3198574 Z"></path></svg>