<svg viewBox="0 0 24 24" version="1.1" xmlns="http://www.w3.org/2000/svg" xmlns:xlink="http://www.w3.org/1999/xlink"><path d="M6.41421356,11 L15,11 C15.5522847,11 16,11.4477153 16,12 C16,12.5522847 15.5522847,13 15,13 L6.41421356,13 L8.70710678,15.2928932 C9.09763107,15.6834175 9.09763107,16.3165825 8.70710678,16.7071068 C8.31658249,17.0976311 7.68341751,17.0976311 7.29289322,16.7071068 L3.29289322,12.7071068 C2.90236893,12.3165825 2.90236893,11.6834175 3.29289322,11.2928932 L7.29289322,7.29289322 C7.68341751,6.90236893 8.31658249,6.90236893 8.70710678,7.29289322 C9.09763107,7.68341751 9.09763107,8.31658249 8.70710678,8.70710678 L6.41421356,11 Z M14,3 L18,3 C19.6568542,3 21,4.34314575 21,6 L21,18 C21,19.6568542 19.6568542,21 18,21 L14,21 C13.4477153,21 13,20.5522847 13,20 C13,19.4477153 13.4477153,19 14,19 L18,19 C18.5522847,19 19,18.5522847 19,18 L19,6 C19,5.44771525 18.5522847,5 18,5 L14,5 C13.4477153,5 13,4.55228475 13,4 C13,3.44771525 13.4477153,3 14,3 Z" transform="translate(12.000000, 12.000000) scale(-1, 1) translate(-12.000000, -12.000000) "></path></svg>