<svg viewBox="0 0 24 24" version="1.1" xmlns="http://www.w3.org/2000/svg" xmlns:xlink="http://www.w3.org/1999/xlink"><path d="M8.4336,8.8594 C8.7546,8.7554 9.0436,8.7144 9.3986,8.7144 C9.4786,8.7144 9.5186,8.7144 9.6076,8.7224 C9.3096,9.3904 8.9886,9.9044 8.6106,10.3304 C8.5536,10.3944 8.5536,10.3944 8.5216,10.4434 L8.5056,10.4354 C8.4966,10.3944 8.4966,10.3864 8.4966,10.3464 C8.4966,10.2914 8.4966,10.2914 8.4896,10.2424 C8.4416,9.6794 8.4416,9.5994 8.4336,8.8594 Z M6.9453,9.7754 C7.1063,9.5744 7.2433,9.4544 7.5963,9.2204 C7.5963,10.0014 7.6363,10.5154 7.7413,11.0394 C7.4843,11.2484 7.2673,11.3434 7.0423,11.3434 C6.7603,11.3434 6.5843,11.1194 6.5843,10.7564 C6.5843,10.4204 6.7043,10.0894 6.9453,9.7754 Z M16.4287,17.8916 L17.7397,17.8916 L15.6927,12.1086 L14.3247,12.1086 L12.2607,17.8916 L13.5247,17.8916 L13.9167,16.7026 L16.0457,16.7026 L16.4287,17.8916 Z M10.9337,12.1076 C11.8427,11.6586 12.3177,10.9746 12.3177,10.0976 C12.3177,9.4626 12.0677,8.9636 11.5527,8.5786 C11.2807,8.3766 11.0467,8.2636 10.7167,8.1836 C10.7417,8.1116 10.7487,8.1036 10.8287,7.8776 C10.8937,7.7086 10.8937,7.7086 10.9257,7.6446 L10.0177,7.3876 C9.9927,7.5726 9.9457,7.7416 9.8567,7.9976 C9.7117,7.9826 9.6477,7.9826 9.5507,7.9826 C9.0607,7.9826 8.8747,7.9976 8.4417,8.0876 C8.4497,7.9176 8.4567,7.6616 8.4817,7.3156 C9.1247,7.2986 10.4277,7.1786 11.3117,7.0336 C11.4807,7.0096 11.5127,7.0096 11.6257,7.0016 L11.5847,6.0766 C10.9657,6.2696 9.8247,6.4306 8.5377,6.5026 C8.5857,5.9396 8.6177,5.7306 8.6827,5.5136 L7.6857,5.4656 C7.7007,5.5306 7.7007,5.5626 7.7007,5.5936 C7.7007,5.7466 7.6937,5.9486 7.6857,6.0526 C7.6607,6.3746 7.6607,6.3746 7.6537,6.5356 L7.4767,6.5356 C6.8087,6.5356 6.3337,6.4956 5.9727,6.4136 L5.9727,7.3156 C6.0607,7.3066 6.1337,7.3066 6.1577,7.3066 L6.3107,7.3066 C7.0897,7.3316 7.5247,7.3396 7.6137,7.3396 C7.5967,7.7256 7.5807,8.0466 7.5807,8.3046 C7.0987,8.5136 6.8007,8.7146 6.4797,9.0276 C5.9647,9.5356 5.6827,10.1696 5.6827,10.8296 C5.6827,11.6656 6.1897,12.2366 6.9377,12.2366 C7.6047,12.2366 8.3207,11.8426 9.0437,11.0786 C9.6227,10.4756 10.0007,9.8966 10.4437,8.9396 C11.0147,9.1326 11.3437,9.5426 11.3437,10.0486 C11.3437,10.6036 11.0467,10.9976 10.4037,11.3036 C9.9287,11.5296 9.5187,11.6176 8.8667,11.6246 C9.1327,12.0426 9.2047,12.1886 9.2937,12.5346 C10.0007,12.4616 10.4597,12.3416 10.9337,12.1076 Z M18.9997,8.9996 C20.1047,8.9996 20.9997,9.8956 20.9997,10.9996 L20.9997,18.9996 C20.9997,20.1046 20.1047,20.9996 18.9997,20.9996 L10.9997,20.9996 C9.8957,20.9996 8.9997,20.1046 8.9997,18.9996 L8.9997,14.9996 L4.9997,14.9996 C3.8957,14.9996 2.9997,14.1046 2.9997,12.9996 L2.9997,4.9996 C2.9997,3.8956 3.8957,2.9996 4.9997,2.9996 L12.9997,2.9996 C14.1047,2.9996 14.9997,3.8956 14.9997,4.9996 L14.9997,8.9996 L18.9997,8.9996 Z M14.2451,15.7061 L14.9961,13.4311 L15.7261,15.7061 L14.2451,15.7061 Z"></path></svg>