<svg viewBox="0 0 24 24" version="1.1" xmlns="http://www.w3.org/2000/svg" xmlns:xlink="http://www.w3.org/1999/xlink"><path d="M4,7.33745968 L4,17 C4,17.5522847 4.44771525,18 5,18 L19,18 C19.5522847,18 20,17.5522847 20,17 L20,7.80339397 L14.2308518,12.8969836 C13.0940454,13.9006717 11.3869891,13.8981641 10.2531363,12.8911404 L4,7.33745968 Z M19.0205228,6.0002064 C19.0136984,6.00006902 19.0068573,6 19,6 L5.50590539,6 L11.581241,11.3957682 C11.9591919,11.7314428 12.5282107,11.7322787 12.9071462,11.397716 L19.0205252,6.00020443 Z M5,4 L19,4 C20.6568542,4 22,5.34314575 22,7 L22,17 C22,18.6568542 20.6568542,20 19,20 L5,20 C3.34314575,20 2,18.6568542 2,17 L2,7 C2,5.34314575 3.34314575,4 5,4 Z"></path></svg>