<svg viewBox="0 0 24 24" version="1.1" xmlns="http://www.w3.org/2000/svg" xmlns:xlink="http://www.w3.org/1999/xlink"><path d="M17,15 C18.6567153,15 20,13.6567153 20,12 C20,10.3432847 18.6567153,9 17,9 L15,9 C14.4477153,9 14,8.55228475 14,8 C14,7.44771525 14.4477153,7 15,7 L17,7 C19.7612847,7 22,9.23871525 22,12 C22,14.7612847 19.7612847,17 17,17 L15,17 C14.4477153,17 14,16.5522847 14,16 C14,15.4477153 14.4477153,15 15,15 L17,15 Z M7,17 C4.23871525,17 2,14.7612847 2,12 C2,9.23871525 4.23871525,7 7,7 L9,7 C9.55228475,7 10,7.44771525 10,8 C10,8.55228475 9.55228475,9 9,9 L7,9 C5.34328475,9 4,10.3432847 4,12 C4,13.6567153 5.34328475,15 7,15 L9,15 C9.55228475,15 10,15.4477153 10,16 C10,16.5522847 9.55228475,17 9,17 L7,17 Z M9,13 C8.44771525,13 8,12.5522847 8,12 C8,11.4477153 8.44771525,11 9,11 L15,11 C15.5522847,11 16,11.4477153 16,12 C16,12.5522847 15.5522847,13 15,13 L9,13 Z"></path></svg>