<svg viewBox="0 0 24 24" version="1.1" xmlns="http://www.w3.org/2000/svg" xmlns:xlink="http://www.w3.org/1999/xlink"><path d="M6,7 C6,6.44771525 6.44463086,6 7.00087166,6 L20.9991283,6 C21.5518945,6 22,6.44386482 22,7 C22,7.55228475 21.5553691,8 20.9991283,8 L7.00087166,8 C6.4481055,8 6,7.55613518 6,7 Z M6,17 C6,16.4477153 6.44463086,16 7.00087166,16 L20.9991283,16 C21.5518945,16 22,16.4438648 22,17 C22,17.5522847 21.5553691,18 20.9991283,18 L7.00087166,18 C6.4481055,18 6,17.5561352 6,17 Z M6,12 C6,11.4477153 6.44463086,11 7.00087166,11 L20.9991283,11 C21.5518945,11 22,11.4438648 22,12 C22,12.5522847 21.5553691,13 20.9991283,13 L7.00087166,13 C6.4481055,13 6,12.5561352 6,12 Z M2,7 C2,6.44771525 2.44386482,6 3,6 C3.55228475,6 4,6.44386482 4,7 C4,7.55228475 3.55613518,8 3,8 C2.44771525,8 2,7.55613518 2,7 Z M2,17 C2,16.4477153 2.44386482,16 3,16 C3.55228475,16 4,16.4438648 4,17 C4,17.5522847 3.55613518,18 3,18 C2.44771525,18 2,17.5561352 2,17 Z M2,12 C2,11.4477153 2.44386482,11 3,11 C3.55228475,11 4,11.4438648 4,12 C4,12.5522847 3.55613518,13 3,13 C2.44771525,13 2,12.5561352 2,12 Z"></path></svg>