<svg viewBox="0 0 24 24" version="1.1" xmlns="http://www.w3.org/2000/svg" xmlns:xlink="http://www.w3.org/1999/xlink"><path d="M8,9 L8,7 C8,4.790861 9.790861,3 12,3 C14.209139,3 16,4.790861 16,7 L16,9 L17,9 C18.1045695,9 19,9.8954305 19,11 L19,19 C19,20.1045695 18.1045695,21 17,21 L7,21 C5.8954305,21 5,20.1045695 5,19 L5,11 C5,9.8954305 5.8954305,9 7,9 L8,9 Z M10,9 L14,9 L14,7 C14,5.8954305 13.1045695,5 12,5 C10.8954305,5 10,5.8954305 10,7 L10,9 Z M12,13 C11.4477153,13 11,13.4477153 11,14 L11,16 C11,16.5522847 11.4477153,17 12,17 C12.5522847,17 13,16.5522847 13,16 L13,14 C13,13.4477153 12.5522847,13 12,13 Z"></path></svg>