<svg viewBox="0 0 24 24" version="1.1" xmlns="http://www.w3.org/2000/svg" xmlns:xlink="http://www.w3.org/1999/xlink"><path d="M12.4318182,6.26145569 L15.9249963,12.2480095 C16.0641668,12.4865177 15.9836376,12.7926869 15.7451294,12.9318574 C15.6686484,12.9764843 15.5816878,13 15.4931389,13 L8.50678285,13 C8.23064048,13 8.00678285,12.7761424 8.00678285,12.5 C8.00678285,12.4114511 8.03029851,12.3244905 8.07492548,12.2480095 L11.5681035,6.26145569 C11.707274,6.02294745 12.0134431,5.9424183 12.2519514,6.08158881 C12.3264104,6.12503595 12.3883711,6.18699667 12.4318182,6.26145569 Z" id="Triangle-2" fill="#000000"></path><path d="M6.00684547,16 C5.45078007,16 5,16.4438648 5,17 L5,17 C5,17.5522847 5.44994876,18 6.00684547,18 L17.9931545,18 C18.5492199,18 19,17.5561352 19,17 L19,17 C19,16.4477153 18.5500512,16 17.9931545,16 L6.00684547,16 Z"></path></svg>