<svg viewBox="0 0 24 24" version="1.1" xmlns="http://www.w3.org/2000/svg" xmlns:xlink="http://www.w3.org/1999/xlink"><path d="M5,3 L19,3 C20.1045695,3 21,3.8954305 21,5 L21,19 C21,20.1045695 20.1045695,21 19,21 L5,21 C3.8954305,21 3,20.1045695 3,19 L3,5 C3,3.8954305 3.8954305,3 5,3 Z M9,7 L9,16.992236 L10.9993391,16.992236 L10.9993391,13.3624655 L12.6835327,13.3624655 C14.6412144,13.3624655 16,12.0873965 16,10.1812328 C16,8.26862925 14.6862925,7 12.7801288,7 L9,7 Z M11,8.53909844 L12.2964745,8.53909844 C13.3905725,8.53909844 14.0229991,9.13155474 14.0229991,10.1876725 C14.0229991,11.25023 13.3842482,11.8426863 12.2901502,11.8426863 L11,11.8426863 L11,8.53909844 Z" fill-rule="nonzero"></path></svg>