<svg viewBox="0 0 24 24" version="1.1" xmlns="http://www.w3.org/2000/svg" xmlns:xlink="http://www.w3.org/1999/xlink"><path d="M20,9.05795971 L20,19 C20,20.6568542 18.6568542,22 17,22 L7,22 C5.34314575,22 4,20.6568542 4,19 L4,5 C4,3.34314575 5.34314575,2 7,2 L13,2 C13.0012122,2 13.0024239,2.00000216 13.003635,2.00000647 C13.1689759,1.99940988 13.3365979,2.04007587 13.4907824,2.12851529 C13.5858953,2.18219395 13.6713416,2.25099304 13.7438587,2.33164993 L19.6683501,8.25614127 C19.7309037,8.31238211 19.7863251,8.37639963 19.8330924,8.44667188 C19.9618938,8.63602798 20.0131699,8.85031612 20,9.05795971 Z M12,4 L7,4 C6.44771525,4 6,4.44771525 6,5 L6,19 C6,19.5522847 6.44771525,20 7,20 L17,20 C17.5522847,20 18,19.5522847 18,19 L18,10.0020048 L13,10.0020048 C12.4477153,10.0020048 12,9.5542895 12,9.00200475 L12,4 Z M14,8.00200475 L16.5857864,8.00200475 L14,5.41621832 L14,8.00200475 Z" fill-rule="nonzero"></path></svg>