<svg viewBox="0 0 24 24" version="1.1" xmlns="http://www.w3.org/2000/svg" xmlns:xlink="http://www.w3.org/1999/xlink"><path d="M8,19 L6,19 C4.8954305,19 4,18.1045695 4,17 L4,4 C4,2.8954305 4.8954305,2 6,2 L14,2 C15.1045695,2 16,2.8954305 16,4 L16,6 L18,6 C19.1045695,6 20,6.8954305 20,8 L20,20 C20,21.1045695 19.1045695,22 18,22 L10,22 C8.8954305,22 8,21.1045695 8,20 L8,19 Z M14,6 L14,4 L6,4 L6,17 L8,17 L8,8 C8,6.8954305 8.8954305,6 10,6 L14,6 Z M10,8 L10,20 L18,20 L18,8 L10,8 Z" id="Combined-Shape" fill="#000000" fill-rule="nonzero"></path></svg>