<svg viewBox="0 0 24 24" version="1.1" xmlns="http://www.w3.org/2000/svg" xmlns:xlink="http://www.w3.org/1999/xlink"><path d="M18.7354,3.1462 L20.8564,5.2682 C21.0514,5.4632 21.0514,5.7792 20.8564,5.9752 L18.7354,8.0962 C18.5404,8.2912 18.2234,8.2912 18.0284,8.0962 L15.9074,5.9752 C15.7124,5.7792 15.7124,5.4632 15.9074,5.2682 L18.0284,3.1462 C18.2234,2.9512 18.5404,2.9512 18.7354,3.1462"></path><path d="M16.0903756,10.0779932 C16.2853756,10.2729932 16.2853756,10.5889932 16.0903756,10.7849932 L6.6362,20.1779 C6.4992,20.3139 6.3262,20.4089 6.1372,20.4489 L3.6032,20.9859 C3.3332,21.0429 3.0682,20.8709 3.0112,20.5999 C2.9962,20.5329 2.9962,20.4629 3.0102,20.3949 L3.5372,17.8509 C3.5772,17.6609 3.6722,17.4849 3.8092,17.3469 L13.2623756,7.95599318 C13.4563756,7.76099318 13.7743756,7.76099318 13.9693756,7.95599318 L16.0903756,10.0779932 Z"></path></svg>