<svg viewBox="0 0 24 24" version="1.1" xmlns="http://www.w3.org/2000/svg" xmlns:xlink="http://www.w3.org/1999/xlink"><path d="M14,17 L5,17 L9,17 L14,17 Z M19,15 L19,5 L5,5 L5,16 L7.64644661,13.3535534 C7.84170876,13.1582912 8.15829124,13.1582912 8.35355339,13.3535534 L10.5,15.5 L14.6464466,11.3535534 C14.8417088,11.1582912 15.1582912,11.1582912 15.3535534,11.3535534 L19,15 Z M5,3 L19,3 C20.1045695,3 21,3.8954305 21,5 L21,19 C21,20.1045695 20.1045695,21 19,21 L5,21 C3.8954305,21 3,20.1045695 3,19 L3,5 C3,3.8954305 3.8954305,3 5,3 Z M9,11 C7.8954305,11 7,10.1045695 7,9 C7,7.8954305 7.8954305,7 9,7 C10.1045695,7 11,7.8954305 11,9 C11,10.1045695 10.1045695,11 9,11 Z" fill-rule="nonzero"></path></svg>