<svg viewBox="0 0 24 24" version="1.1" xmlns="http://www.w3.org/2000/svg" xmlns:xlink="http://www.w3.org/1999/xlink"><path d="M14.2588,19.6699 C15.1168,18.6319 15.8108,17.4539 16.2858,16.1669 L18.8168,16.1669 C17.7908,17.8369 16.1768,19.1039 14.2588,19.6699 Z M5.1838,16.1669 L7.7138,16.1669 C8.1898,17.4539 8.8828,18.6319 9.7408,19.6699 C7.8228,19.1039 6.2088,17.8369 5.1838,16.1669 Z M9.7408,4.3299 C8.8458,5.4119 8.1388,6.6489 7.6618,7.9999 L5.0818,7.9999 C6.0998,6.2469 7.7598,4.9149 9.7408,4.3299 Z M18.9178,7.9999 L16.3378,7.9999 C15.8618,6.6489 15.1548,5.4119 14.2588,4.3299 C16.2398,4.9149 17.9008,6.2469 18.9178,7.9999 Z M16.8488,9.9999 L19.7368,9.9999 C19.9028,10.6409 19.9998,11.3089 19.9998,11.9999 C19.9998,12.7519 19.8888,13.4769 19.6938,14.1669 L16.8178,14.1669 C16.9468,13.4619 17.0348,12.7429 17.0348,11.9999 C17.0348,11.3159 16.9578,10.6519 16.8488,9.9999 Z M14.1938,7.9999 L9.8068,7.9999 C10.3238,6.8139 11.0648,5.7249 11.9998,4.8069 C12.9358,5.7249 13.6758,6.8139 14.1938,7.9999 Z M3.9998,11.9999 C3.9998,11.3089 4.0978,10.6409 4.2638,9.9999 L7.1518,9.9999 C7.0418,10.6519 6.9648,11.3159 6.9648,11.9999 C6.9648,12.7429 7.0538,13.4619 7.1828,14.1669 L4.3068,14.1669 C4.1118,13.4769 3.9998,12.7519 3.9998,11.9999 Z M9.2108,14.1669 C9.0538,13.4599 8.9648,12.7349 8.9648,11.9999 C8.9648,11.3229 9.0348,10.6529 9.1688,9.9999 L14.8308,9.9999 C14.9648,10.6529 15.0348,11.3229 15.0348,11.9999 C15.0348,12.7349 14.9458,13.4599 14.7888,14.1669 L9.2108,14.1669 Z M9.8868,16.1669 L14.1128,16.1669 C13.5998,17.2879 12.8918,18.3189 11.9998,19.1929 C11.1088,18.3189 10.4008,17.2879 9.8868,16.1669 Z M1.9998,11.9999 C1.9998,17.5229 6.4778,21.9999 11.9998,21.9999 C17.5228,21.9999 21.9998,17.5229 21.9998,11.9999 C21.9998,6.4769 17.5228,1.9999 11.9998,1.9999 C6.4778,1.9999 1.9998,6.4769 1.9998,11.9999 Z"></path></svg>