<svg viewBox="0 0 24 24" version="1.1" xmlns="http://www.w3.org/2000/svg" xmlns:xlink="http://www.w3.org/1999/xlink"><path d="M12,20 C16.418278,20 20,16.418278 20,12 C20,7.581722 16.418278,4 12,4 C7.581722,4 4,7.581722 4,12 C4,16.418278 7.581722,20 12,20 Z M12,22 C6.4771525,22 2,17.5228475 2,12 C2,6.4771525 6.4771525,2 12,2 C17.5228475,2 22,6.4771525 22,12 C22,17.5228475 17.5228475,22 12,22 Z M10.7389195,9.40194166 L14.6947552,11.5537526 C14.9373317,11.6857042 15.0270109,11.9893193 14.8950593,12.2318959 C14.8491838,12.3162323 14.7799977,12.3855781 14.6957673,12.431648 L10.7399316,14.5952941 C10.49766,14.7278046 10.193839,14.6388257 10.0613284,14.3965541 C10.0210896,14.3229848 10,14.240477 10,14.1566224 L10,9.84116536 C10,9.56502299 10.2238576,9.34116536 10.5,9.34116536 C10.5834642,9.34116536 10.6656006,9.3620592 10.7389195,9.40194166 Z"></path></svg>