<svg viewBox="0 0 24 24" version="1.1" xmlns="http://www.w3.org/2000/svg" xmlns:xlink="http://www.w3.org/1999/xlink"><path d="M12,22 C6.4771525,22 2,17.5228475 2,12 C2,6.4771525 6.4771525,2 12,2 C17.5228475,2 22,6.4771525 22,12 C22,17.5228475 17.5228475,22 12,22 Z M9,9.85742188 L10.8525391,9.85742188 C10.8935547,9.08496094 11.4130859,8.5859375 12.1992188,8.5859375 C12.9785156,8.5859375 13.4980469,9.05761719 13.4980469,9.70703125 C13.4980469,10.3564453 13.2314453,10.6914062 12.3496094,11.2177734 C11.40625,11.7714844 11.0302734,12.3867188 11.1191406,13.4599609 L11.1328125,13.8564453 L12.9443359,13.8564453 L12.9443359,13.4941406 C12.9443359,12.8242188 13.1972656,12.4892578 14.1064453,11.9628906 C15.0703125,11.3955078 15.5693359,10.6777344 15.5693359,9.64550781 C15.5693359,8.08691406 14.2773438,7 12.3222656,7 C10.2236328,7 9.03417969,8.17578125 9,9.85742188 Z M12.1142578,17.1464844 C12.7363281,17.1464844 13.2353516,16.6748047 13.2353516,16.0732422 C13.2353516,15.4716797 12.7363281,15 12.1142578,15 C11.4990234,15 11,15.4716797 11,16.0732422 C11,16.6748047 11.4990234,17.1464844 12.1142578,17.1464844 Z"></path></svg>