<svg viewBox="0 0 24 24" version="1.1" xmlns="http://www.w3.org/2000/svg" xmlns:xlink="http://www.w3.org/1999/xlink"><path d="M7.41421356,10 L9.70710678,12.2928932 C10.0976311,12.6834175 10.0976311,13.3165825 9.70710678,13.7071068 C9.31658249,14.0976311 8.68341751,14.0976311 8.29289322,13.7071068 L4.29289322,9.70710678 C3.90236893,9.31658249 3.90236893,8.68341751 4.29289322,8.29289322 L8.29289322,4.29289322 C8.68341751,3.90236893 9.31658249,3.90236893 9.70710678,4.29289322 C10.0976311,4.68341751 10.0976311,5.31658249 9.70710678,5.70710678 L7.41421356,8 L14.6270342,8 C17.6005806,8 20,10.4691222 20,13.5 C20,16.5308778 17.6005806,19 14.6270342,19 L12.0234369,19 C11.4711522,19 11.0234369,18.5522847 11.0234369,18 C11.0234369,17.4477153 11.4711522,17 12.0234369,17 L14.6270342,17 C16.4829912,17 18,15.4389222 18,13.5 C18,11.5610778 16.4829912,10 14.6270342,10 L7.41421356,10 Z"></path></svg>