<svg viewBox="0 0 24 24" version="1.1" xmlns="http://www.w3.org/2000/svg" xmlns:xlink="http://www.w3.org/1999/xlink"><path d="M6.41421356,14 L17,14 C18.1045695,14 19,13.1045695 19,12 L19,4 C19,3.44771525 19.4477153,3 20,3 C20.5522847,3 21,3.44771525 21,4 L21,12 C21,14.209139 19.209139,16 17,16 L6.41421356,16 L9.70710678,19.2928932 C10.0976311,19.6834175 10.0976311,20.3165825 9.70710678,20.7071068 C9.31658249,21.0976311 8.68341751,21.0976311 8.29289322,20.7071068 L3.29289322,15.7071068 C2.90236893,15.3165825 2.90236893,14.6834175 3.29289322,14.2928932 L8.29289322,9.29289322 C8.68341751,8.90236893 9.31658249,8.90236893 9.70710678,9.29289322 C10.0976311,9.68341751 10.0976311,10.3165825 9.70710678,10.7071068 L6.41421356,14 Z"></path></svg>