<svg viewBox="0 0 24 24" version="1.1" xmlns="http://www.w3.org/2000/svg" xmlns:xlink="http://www.w3.org/1999/xlink"><path d="M5,8 L5,19 L19,19 L19,8 L5,8 Z M5,3 L19,3 C20.1045695,3 21,3.8954305 21,5 L21,19 C21,20.1045695 20.1045695,21 19,21 L5,21 C3.8954305,21 3,20.1045695 3,19 L3,5 C3,3.8954305 3.8954305,3 5,3 Z M13,14 L17,14 C17.5522847,14 18,14.4477153 18,15 L18,17 C18,17.5522847 17.5522847,18 17,18 L13,18 C12.4477153,18 12,17.5522847 12,17 L12,15 C12,14.4477153 12.4477153,14 13,14 Z" fill-rule="nonzero"></path></svg>