<svg viewBox="0 0 24 24" version="1.1" xmlns="http://www.w3.org/2000/svg" xmlns:xlink="http://www.w3.org/1999/xlink"><path d="M15.707,14.293 C16.098,14.684 16.098,15.316 15.707,15.707 C15.512,15.902 15.256,16 15,16 C14.744,16 14.488,15.902 14.293,15.707 L12,13.414 L9.707,15.707 C9.512,15.902 9.256,16 9,16 C8.744,16 8.488,15.902 8.293,15.707 C7.902,15.316 7.902,14.684 8.293,14.293 L10.586,12 L8.293,9.707 C7.902,9.316 7.902,8.684 8.293,8.293 C8.684,7.902 9.316,7.902 9.707,8.293 L12,10.586 L14.293,8.293 C14.684,7.902 15.316,7.902 15.707,8.293 C16.098,8.684 16.098,9.316 15.707,9.707 L13.414,12 L15.707,14.293 Z M12,2 C6.478,2 2,6.477 2,12 C2,17.523 6.478,22 12,22 C17.522,22 22,17.523 22,12 C22,6.477 17.522,2 12,2 Z"></path></svg>