<svg viewBox="0 0 24 24" version="1.1" xmlns="http://www.w3.org/2000/svg" xmlns:xlink="http://www.w3.org/1999/xlink"><path d="M7.1905096,17.0861617 L6.07179677,17.7320508 C5.59350415,18.0081932 4.98191374,17.844318 4.70577137,17.3660254 L3.70577137,15.6339746 C3.42962899,15.155682 3.59350415,14.5440916 4.07179677,14.2679492 L5.18908653,13.6228817 C5.06544497,13.1020388 5,12.5586622 5,12 C5,11.4413378 5.06544497,10.8979612 5.18908653,10.3771183 L4.07179677,9.73205081 C3.59350415,9.45590843 3.42962899,8.84431803 3.70577137,8.3660254 L4.70577137,6.6339746 C4.98191374,6.15568197 5.59350415,5.99180682 6.07179677,6.26794919 L7.1905096,6.91383834 C7.97672138,6.17013553 8.93527855,5.60675528 10,5.28987868 L10,4 C10,3.44771525 10.4477153,3 11,3 L13,3 C13.5522847,3 14,3.44771525 14,4 L14,5.28987868 C15.0647215,5.60675528 16.0232786,6.17013553 16.8094904,6.91383834 L17.9282032,6.26794919 C18.4064959,5.99180682 19.0180863,6.15568197 19.2942286,6.6339746 L20.2942286,8.3660254 C20.570371,8.84431803 20.4064959,9.45590843 19.9282032,9.73205081 L18.8109135,10.3771183 C18.934555,10.8979612 19,11.4413378 19,12 C19,12.5586622 18.934555,13.1020388 18.8109135,13.6228817 L19.9282032,14.2679492 C20.4064959,14.5440916 20.570371,15.155682 20.2942286,15.6339746 L19.2942286,17.3660254 C19.0180863,17.844318 18.4064959,18.0081932 17.9282032,17.7320508 L16.8094904,17.0861617 C16.0232786,17.8298645 15.0647215,18.3932447 14,18.7101213 L14,20 C14,20.5522847 13.5522847,21 13,21 L11,21 C10.4477153,21 10,20.5522847 10,20 L10,18.7101213 C8.93527855,18.3932447 7.97672138,17.8298645 7.1905096,17.0861617 Z M12,15 C13.6568542,15 15,13.6568542 15,12 C15,10.3431458 13.6568542,9 12,9 C10.3431458,9 9,10.3431458 9,12 C9,13.6568542 10.3431458,15 12,15 Z"></path></svg>