<svg viewBox="0 0 24 24" version="1.1" xmlns="http://www.w3.org/2000/svg" xmlns:xlink="http://www.w3.org/1999/xlink"><path d="M9.66666667,11 L4.33333333,11 C3.59733333,11 3,10.404 3,9.66666667 L3,4.33333333 C3,3.596 3.59733333,3 4.33333333,3 L9.66666667,3 C10.4026667,3 11,3.596 11,4.33333333 L11,9.66666667 C11,10.404 10.4026667,11 9.66666667,11 Z M9.66666667,21 L4.33333333,21 C3.59733333,21 3,20.404 3,19.6666667 L3,14.3333333 C3,13.596 3.59733333,13 4.33333333,13 L9.66666667,13 C10.4026667,13 11,13.596 11,14.3333333 L11,19.6666667 C11,20.404 10.4026667,21 9.66666667,21 Z M19.6666667,11 L14.3333333,11 C13.5973333,11 13,10.404 13,9.66666667 L13,4.33333333 C13,3.596 13.5973333,3 14.3333333,3 L19.6666667,3 C20.4026667,3 21,3.596 21,4.33333333 L21,9.66666667 C21,10.404 20.4026667,11 19.6666667,11 Z M19.6666667,21 L14.3333333,21 C13.5973333,21 13,20.404 13,19.6666667 L13,14.3333333 C13,13.596 13.5973333,13 14.3333333,13 L19.6666667,13 C20.4026667,13 21,13.596 21,14.3333333 L21,19.6666667 C21,20.404 20.4026667,21 19.6666667,21 Z" ></path></svg>