<svg viewBox="0 0 24 24" version="1.1" xmlns="http://www.w3.org/2000/svg" xmlns:xlink="http://www.w3.org/1999/xlink"><path d="M9.85749293,17.5144958 C9.57334477,17.988076 8.95908451,18.1416411 8.48550424,17.8574929 C8.01192398,17.5733448 7.85835891,16.9590845 8.14250707,16.4855042 L14.1425071,6.48550424 C14.4266552,6.01192398 15.0409155,5.85835891 15.5144958,6.14250707 C15.988076,6.42665523 16.1416411,7.04091549 15.8574929,7.51449576 L9.85749293,17.5144958 Z M6.70710678,14.2928932 C7.09763107,14.6834175 7.09763107,15.3165825 6.70710678,15.7071068 C6.31658249,16.0976311 5.68341751,16.0976311 5.29289322,15.7071068 L2.29289322,12.7071068 C1.90236893,12.3165825 1.90236893,11.6834175 2.29289322,11.2928932 L5.29289322,8.29289322 C5.68341751,7.90236893 6.31658249,7.90236893 6.70710678,8.29289322 C7.09763107,8.68341751 7.09763107,9.31658249 6.70710678,9.70710678 L4.41421356,12 L6.70710678,14.2928932 Z M17.2928932,14.2928932 L19.5857864,12 L17.2928932,9.70710678 C16.9023689,9.31658249 16.9023689,8.68341751 17.2928932,8.29289322 C17.6834175,7.90236893 18.3165825,7.90236893 18.7071068,8.29289322 L21.7071068,11.2928932 C22.0976311,11.6834175 22.0976311,12.3165825 21.7071068,12.7071068 L18.7071068,15.7071068 C18.3165825,16.0976311 17.6834175,16.0976311 17.2928932,15.7071068 C16.9023689,15.3165825 16.9023689,14.6834175 17.2928932,14.2928932 Z"></path></svg>