<svg viewBox="0 0 24 24" version="1.1" xmlns="http://www.w3.org/2000/svg" xmlns:xlink="http://www.w3.org/1999/xlink"><path d="M7.95906989,16 L18,16 C18.5522847,16 19,15.5522847 19,15 L19,6 C19,5.44771525 18.5522847,5 18,5 L6,5 C5.44771525,5 5,5.44771525 5,6 L5,18.1136214 L7.95906989,16 Z M8.6,18 L4.58123819,20.8705441 C4.13182561,21.1915531 3.50727552,21.0874615 3.18626653,20.6380489 C3.06512313,20.4684481 3,20.2652337 3,20.0568107 L3,6 C3,4.34314575 4.34314575,3 6,3 L18,3 C19.6568542,3 21,4.34314575 21,6 L21,15 C21,16.6568542 19.6568542,18 18,18 L8.6,18 Z"></path></svg>