<svg viewBox="0 0 24 24" version="1.1" xmlns="http://www.w3.org/2000/svg" xmlns:xlink="http://www.w3.org/1999/xlink"><path d="M16,5 L20,5 C20.5522847,5 21,5.44771525 21,6 C21,6.55228475 20.5522847,7 20,7 L19,7 L19,19 C19,20.6568542 17.6568542,22 16,22 L8,22 C6.34314575,22 5,20.6568542 5,19 L5,7 L4,7 C3.44771525,7 3,6.55228475 3,6 C3,5.44771525 3.44771525,5 4,5 L8,5 L8,4 C8,2.8954305 8.8954305,2 10,2 L14,2 C15.1045695,2 16,2.8954305 16,4 L16,5 Z M14,5 L14,4 L10,4 L10,5 L14,5 Z M16,7 L8,7 L7,7 L7,19 C7,19.5522847 7.44771525,20 8,20 L16,20 C16.5522847,20 17,19.5522847 17,19 L17,7 L16,7 Z M10,10 C10.5522847,10 11,10.4477153 11,11 L11,16 C11,16.5522847 10.5522847,17 10,17 C9.44771525,17 9,16.5522847 9,16 L9,11 C9,10.4477153 9.44771525,10 10,10 Z M14,10 C14.5522847,10 15,10.4477153 15,11 L15,16 C15,16.5522847 14.5522847,17 14,17 C13.4477153,17 13,16.5522847 13,16 L13,11 C13,10.4477153 13.4477153,10 14,10 Z"></path></svg>