<svg viewBox="0 0 24 24" version="1.1" xmlns="http://www.w3.org/2000/svg" xmlns:xlink="http://www.w3.org/1999/xlink"><path d="M14.5,11.5 C12.429,11.5 10.75,9.821 10.75,7.75 C10.75,5.679 12.429,4 14.5,4 C16.571,4 18.25,5.679 18.25,7.75 C18.25,9.821 16.571,11.5 14.5,11.5 Z M7.5,8.5 C9.019,8.5 10.25,9.731 10.25,11.25 C10.25,12.769 9.019,14 7.5,14 C5.981,14 4.75,12.769 4.75,11.25 C4.75,9.731 5.981,8.5 7.5,8.5 Z M15,18.125 C15,15.977 13.557,14.178 11.596,13.593 C11.638,13.52 11.687,13.451 11.725,13.375 L18.25,13.375 C20.321,13.375 22,15.054 22,17.125 L22,20.875 L15,20.875 L15,18.125 Z M13,20.875 L2,20.875 L2,18.125 C2,16.606 3.231,15.375 4.75,15.375 L10.25,15.375 C11.769,15.375 13,16.606 13,18.125 L13,20.875 Z"></path></svg>