<svg viewBox="0 0 24 24" version="1.1" xmlns="http://www.w3.org/2000/svg" xmlns:xlink="http://www.w3.org/1999/xlink"><path d="M18,19 L18,17 C18,15.8954305 17.1045695,15 16,15 L8,15 C6.8954305,15 6,15.8954305 6,17 L6,19 L18,19 Z M20,21 L4,21 L4,17 C4,14.790861 5.790861,13 8,13 L16,13 C18.209139,13 20,14.790861 20,17 L20,21 Z M12,9 C13.1045695,9 14,8.1045695 14,7 C14,5.8954305 13.1045695,5 12,5 C10.8954305,5 10,5.8954305 10,7 C10,8.1045695 10.8954305,9 12,9 Z M12,11 C9.790861,11 8,9.209139 8,7 C8,4.790861 9.790861,3 12,3 C14.209139,3 16,4.790861 16,7 C16,9.209139 14.209139,11 12,11 Z" fill-rule="nonzero"></path></svg>