<svg viewBox="0 0 24 24" version="1.1" xmlns="http://www.w3.org/2000/svg" xmlns:xlink="http://www.w3.org/1999/xlink"><path d="M13.1500506,13 C13.1500506,13.552 12.6684393,14 12.0750253,14 C11.4816113,14 11,13.552 11,13 L11,9 C11,8.448 11.4816113,8 12.0750253,8 C12.6684393,8 13.1500506,8.448 13.1500506,9 L13.1500506,13 Z M12,18 C11.448,18 11,17.552 11,17 C11,16.448 11.448,16 12,16 C12.552,16 13,16.448 13,17 C13,17.552 12.552,18 12,18 Z M21.8633573,18.5965202 L12.9395721,4.48522055 C12.5299875,3.83825982 11.4700125,3.83825982 11.0604279,4.48522055 L2.13664272,18.5965202 C1.73888336,19.2264805 2.25704556,20 3.07728987,20 L20.9227101,20 C21.7429544,20 22.2611166,19.2264805 21.8633573,18.5965202 Z"></path></svg>